<mxfile host="app.diagrams.net" modified="2022-06-28T05:32:01.467Z" agent="5.0 (Macintosh; Intel Mac OS X 10_15_7) AppleWebKit/605.1.15 (KHTML, like Gecko) Version/15.5 Safari/605.1.15" etag="2tgxi1lxBIvwqPTxI8Eg" version="20.0.3" type="github">
  <diagram id="P8m5Uf9AdZJfuIBBueuS" name="Page-1">
    <mxGraphModel dx="1316" dy="811" grid="1" gridSize="10" guides="1" tooltips="1" connect="1" arrows="1" fold="1" page="1" pageScale="1" pageWidth="1169" pageHeight="827" math="0" shadow="0">
      <root>
        <mxCell id="0" />
        <mxCell id="1" parent="0" />
        <mxCell id="9hWqaZWQMXzfw_VwSN3E-2" value="" style="aspect=fixed;perimeter=ellipsePerimeter;html=1;align=center;shadow=0;dashed=0;spacingTop=3;image;image=img/lib/active_directory/database_server.svg;" vertex="1" parent="1">
          <mxGeometry x="990" y="410" width="82" height="100" as="geometry" />
        </mxCell>
        <mxCell id="9hWqaZWQMXzfw_VwSN3E-4" value="https://alm.finastra.com/ssp/login" style="text;html=1;strokeColor=none;fillColor=none;align=center;verticalAlign=middle;whiteSpace=wrap;rounded=0;rotation=-90;strokeWidth=1;fontSize=14;fontColor=#000000;" vertex="1" parent="1">
          <mxGeometry x="240" y="345" width="60" height="30" as="geometry" />
        </mxCell>
        <mxCell id="9hWqaZWQMXzfw_VwSN3E-6" value="" style="aspect=fixed;perimeter=ellipsePerimeter;html=1;align=center;shadow=0;dashed=0;spacingTop=3;image;image=img/lib/active_directory/users.svg;fontSize=14;strokeWidth=1;" vertex="1" parent="1">
          <mxGeometry x="80" y="310" width="33" height="50" as="geometry" />
        </mxCell>
        <mxCell id="9hWqaZWQMXzfw_VwSN3E-9" value="" style="rounded=1;whiteSpace=wrap;html=1;fontSize=14;fontColor=#000000;strokeWidth=1;gradientColor=#ffffff;fillColor=none;dashed=1;dashPattern=1 2;strokeColor=#CC00CC;" vertex="1" parent="1">
          <mxGeometry x="290" y="180" width="620" height="360" as="geometry" />
        </mxCell>
        <mxCell id="9hWqaZWQMXzfw_VwSN3E-7" value="" style="endArrow=classic;startArrow=classic;html=1;rounded=0;fontSize=14;fontColor=#00CCCC;strokeColor=#FF00FF;" edge="1" parent="1">
          <mxGeometry width="50" height="50" relative="1" as="geometry">
            <mxPoint x="140" y="340.28999999999996" as="sourcePoint" />
            <mxPoint x="220" y="340.28999999999996" as="targetPoint" />
          </mxGeometry>
        </mxCell>
        <mxCell id="9hWqaZWQMXzfw_VwSN3E-8" value="PostgresqlDB" style="text;html=1;strokeColor=none;fillColor=none;align=center;verticalAlign=middle;whiteSpace=wrap;rounded=0;fontSize=14;fontColor=#000000;" vertex="1" parent="1">
          <mxGeometry x="1000" y="360" width="60" height="30" as="geometry" />
        </mxCell>
        <mxCell id="9hWqaZWQMXzfw_VwSN3E-3" value="Login" style="html=1;strokeColor=none;fillColor=#0079D6;labelPosition=center;verticalLabelPosition=middle;verticalAlign=top;align=center;fontSize=12;outlineConnect=0;spacingTop=-6;fontColor=#FFFFFF;sketch=0;shape=mxgraph.sitemap.login;" vertex="1" parent="1">
          <mxGeometry x="320" y="320" width="80" height="50" as="geometry" />
        </mxCell>
        <mxCell id="9hWqaZWQMXzfw_VwSN3E-11" value="Docker Image" style="text;html=1;strokeColor=none;fillColor=none;align=center;verticalAlign=middle;whiteSpace=wrap;rounded=0;dashed=1;dashPattern=1 2;fontSize=17;fontColor=#000000;" vertex="1" parent="1">
          <mxGeometry x="525" y="550" width="125" height="30" as="geometry" />
        </mxCell>
        <mxCell id="9hWqaZWQMXzfw_VwSN3E-12" value="" style="aspect=fixed;perimeter=ellipsePerimeter;html=1;align=center;shadow=0;dashed=0;fontColor=#4277BB;labelBackgroundColor=#ffffff;fontSize=12;spacingTop=3;image;image=img/lib/ibm/applications/app_server.svg;dashPattern=1 2;strokeColor=#CC00CC;strokeWidth=1;fillColor=none;gradientColor=#ffffff;imageBackground=none;sketch=1;" vertex="1" parent="1">
          <mxGeometry x="730" y="321" width="60" height="60" as="geometry" />
        </mxCell>
        <mxCell id="9hWqaZWQMXzfw_VwSN3E-13" value="Spring Boot Server" style="text;html=1;strokeColor=none;fillColor=none;align=center;verticalAlign=middle;whiteSpace=wrap;rounded=0;dashed=1;dashPattern=1 2;sketch=1;fontSize=14;fontColor=#000000;" vertex="1" parent="1">
          <mxGeometry x="700" y="280" width="100" height="30" as="geometry" />
        </mxCell>
        <mxCell id="9hWqaZWQMXzfw_VwSN3E-15" value="" style="sketch=0;outlineConnect=0;fontColor=#232F3E;gradientColor=none;fillColor=#4D27AA;strokeColor=none;dashed=0;verticalLabelPosition=bottom;verticalAlign=top;align=center;html=1;fontSize=12;fontStyle=0;aspect=fixed;pointerEvents=1;shape=mxgraph.aws4.endpoints;dashPattern=1 2;" vertex="1" parent="1">
          <mxGeometry x="820" y="450" width="49" height="49" as="geometry" />
        </mxCell>
        <mxCell id="9hWqaZWQMXzfw_VwSN3E-16" value="" style="endArrow=classic;startArrow=classic;html=1;rounded=0;fontSize=14;fontColor=#000000;strokeColor=#FF00FF;" edge="1" parent="1" source="9hWqaZWQMXzfw_VwSN3E-15">
          <mxGeometry width="50" height="50" relative="1" as="geometry">
            <mxPoint x="920" y="510" as="sourcePoint" />
            <mxPoint x="980" y="475" as="targetPoint" />
          </mxGeometry>
        </mxCell>
        <mxCell id="9hWqaZWQMXzfw_VwSN3E-17" value="Spring JPA" style="text;html=1;strokeColor=none;fillColor=none;align=center;verticalAlign=middle;whiteSpace=wrap;rounded=0;dashed=1;dashPattern=1 2;sketch=1;fontSize=14;fontColor=#000000;" vertex="1" parent="1">
          <mxGeometry x="804.5" y="510" width="80" height="30" as="geometry" />
        </mxCell>
        <mxCell id="9hWqaZWQMXzfw_VwSN3E-19" value="" style="endArrow=classic;startArrow=classic;html=1;rounded=0;fontSize=14;fontColor=#000000;strokeColor=#FF00FF;" edge="1" parent="1">
          <mxGeometry width="50" height="50" relative="1" as="geometry">
            <mxPoint x="810" y="460" as="sourcePoint" />
            <mxPoint x="770" y="390" as="targetPoint" />
          </mxGeometry>
        </mxCell>
        <mxCell id="9hWqaZWQMXzfw_VwSN3E-20" value="" style="sketch=0;html=1;dashed=0;whitespace=wrap;fillColor=#2875E2;strokeColor=#ffffff;points=[[0.005,0.63,0],[0.1,0.2,0],[0.9,0.2,0],[0.5,0,0],[0.995,0.63,0],[0.72,0.99,0],[0.5,1,0],[0.28,0.99,0]];shape=mxgraph.kubernetes.icon;prIcon=api;dashPattern=1 2;fontSize=14;fontColor=#000000;" vertex="1" parent="1">
          <mxGeometry x="528" y="324" width="50" height="48" as="geometry" />
        </mxCell>
        <mxCell id="9hWqaZWQMXzfw_VwSN3E-21" value="" style="sketch=0;outlineConnect=0;fontColor=#232F3E;gradientColor=none;fillColor=#B0084D;strokeColor=none;dashed=0;verticalLabelPosition=bottom;verticalAlign=top;align=center;html=1;fontSize=12;fontStyle=0;aspect=fixed;pointerEvents=1;shape=mxgraph.aws4.endpoint;dashPattern=1 2;" vertex="1" parent="1">
          <mxGeometry x="527" y="446" width="59" height="59" as="geometry" />
        </mxCell>
        <mxCell id="9hWqaZWQMXzfw_VwSN3E-22" value="" style="shape=image;html=1;verticalAlign=top;verticalLabelPosition=bottom;labelBackgroundColor=#ffffff;imageAspect=0;aspect=fixed;image=https://cdn4.iconfinder.com/data/icons/online-marketing-hand-drawn-vol-4/52/search__web__website__broswer__google__magnify__browsing-128.png;dashed=1;dashPattern=1 2;sketch=1;fontSize=14;fontColor=#3333FF;strokeColor=default;strokeWidth=1;fillColor=none;gradientColor=#ffffff;labelBorderColor=#3333FF;" vertex="1" parent="1">
          <mxGeometry x="526" y="221" width="49" height="49" as="geometry" />
        </mxCell>
        <mxCell id="9hWqaZWQMXzfw_VwSN3E-24" value="" style="endArrow=classic;startArrow=classic;html=1;rounded=0;fontSize=17;fontColor=#3333FF;strokeColor=#FF00FF;" edge="1" parent="1">
          <mxGeometry width="50" height="50" relative="1" as="geometry">
            <mxPoint x="610" y="350.87000000000006" as="sourcePoint" />
            <mxPoint x="710" y="350.29" as="targetPoint" />
          </mxGeometry>
        </mxCell>
        <mxCell id="9hWqaZWQMXzfw_VwSN3E-25" value="" style="endArrow=classic;startArrow=classic;html=1;rounded=0;fontSize=17;fontColor=#3333FF;strokeColor=#FF00FF;" edge="1" parent="1">
          <mxGeometry width="50" height="50" relative="1" as="geometry">
            <mxPoint x="409.9999999999998" y="350.8700000000001" as="sourcePoint" />
            <mxPoint x="509.9999999999998" y="350.28999999999996" as="targetPoint" />
          </mxGeometry>
        </mxCell>
        <mxCell id="9hWqaZWQMXzfw_VwSN3E-27" value="SwaggerUI" style="text;html=1;strokeColor=none;fillColor=none;align=center;verticalAlign=middle;whiteSpace=wrap;rounded=0;dashed=1;dashPattern=1 2;labelBorderColor=none;sketch=1;fontSize=14;fontColor=#000000;" vertex="1" parent="1">
          <mxGeometry x="525" y="505" width="60" height="30" as="geometry" />
        </mxCell>
        <mxCell id="9hWqaZWQMXzfw_VwSN3E-28" value="Rest End Points" style="text;html=1;strokeColor=none;fillColor=none;align=center;verticalAlign=middle;whiteSpace=wrap;rounded=0;dashed=1;dashPattern=1 2;labelBorderColor=none;sketch=1;fontSize=14;fontColor=#000000;" vertex="1" parent="1">
          <mxGeometry x="488" y="375" width="130" height="30" as="geometry" />
        </mxCell>
        <mxCell id="9hWqaZWQMXzfw_VwSN3E-29" value="Thyme Leaf UI" style="text;html=1;strokeColor=none;fillColor=none;align=center;verticalAlign=middle;whiteSpace=wrap;rounded=0;dashed=1;dashPattern=1 2;labelBorderColor=none;sketch=1;fontSize=14;fontColor=#000000;" vertex="1" parent="1">
          <mxGeometry x="500" y="270" width="112" height="30" as="geometry" />
        </mxCell>
      </root>
    </mxGraphModel>
  </diagram>
</mxfile>
